<svg width="256" height="256" viewBox="0 0 256 256" fill="none" xmlns="http://www.w3.org/2000/svg">
<g filter="url(#filter0_d_1_3)">
<path d="M111.107 19.1396C111.499 18.7553 111.695 18.5595 111.861 18.4C120.931 9.86665 135.069 9.86665 144.139 18.4C144.306 18.5595 144.501 18.7553 144.893 19.1396C145.132 19.3643 145.248 19.4802 145.357 19.589C151.164 25.1281 159.379 27.3249 167.172 25.4326C167.325 25.3964 167.484 25.3529 167.803 25.2731C168.332 25.1354 168.601 25.0701 168.825 25.0121C180.94 22.1555 193.193 29.2244 196.775 41.1508C196.84 41.3756 196.912 41.6367 197.065 42.1659C197.152 42.485 197.195 42.6444 197.239 42.7966C199.493 50.489 205.511 56.5066 213.203 58.7614C213.356 58.8049 213.515 58.8484 213.834 58.9354C214.363 59.0876 214.624 59.1601 214.849 59.2253C226.776 62.8069 233.845 75.0596 230.988 87.1746C230.93 87.3993 230.865 87.6677 230.727 88.1969C230.647 88.5159 230.604 88.6753 230.567 88.8276C228.675 96.6215 230.872 104.836 236.411 110.643C236.52 110.752 236.636 110.868 236.86 111.107C237.245 111.499 237.44 111.694 237.6 111.861C246.133 120.931 246.133 135.069 237.6 144.139C237.44 144.306 237.245 144.501 236.86 144.893C236.636 145.132 236.52 145.248 236.411 145.357C230.872 151.164 228.675 159.379 230.567 167.172C230.604 167.325 230.647 167.484 230.727 167.803C230.865 168.332 230.93 168.601 230.988 168.825C233.845 180.94 226.776 193.193 214.849 196.775C214.624 196.84 214.363 196.912 213.834 197.065C213.515 197.152 213.356 197.195 213.203 197.239C205.511 199.493 199.493 205.511 197.239 213.203C197.195 213.356 197.152 213.515 197.065 213.834C196.912 214.363 196.84 214.624 196.775 214.849C193.193 226.776 180.94 233.845 168.825 230.988C168.601 230.93 168.332 230.865 167.803 230.727C167.484 230.647 167.325 230.604 167.172 230.567C159.379 228.675 151.164 230.872 145.357 236.411C145.248 236.52 145.132 236.636 144.893 236.86C144.501 237.245 144.306 237.44 144.139 237.6C135.069 246.133 120.931 246.133 111.861 237.6C111.695 237.44 111.499 237.245 111.107 236.86C110.868 236.636 110.752 236.52 110.643 236.411C104.836 230.872 96.6215 228.675 88.8277 230.567C88.6754 230.604 88.5159 230.647 88.1969 230.727C87.6676 230.865 87.3994 230.93 87.1746 230.988C75.0597 233.845 62.807 226.776 59.2255 214.849C59.1602 214.624 59.0877 214.363 58.9355 213.834C58.8484 213.515 58.805 213.356 58.7615 213.203C56.5067 205.511 50.4891 199.493 42.7967 197.239C42.6444 197.195 42.4849 197.152 42.1659 197.065C41.6367 196.912 41.3757 196.84 41.1509 196.775C29.2245 193.193 22.1556 180.94 25.0121 168.825C25.0701 168.601 25.1355 168.332 25.2732 167.803C25.353 167.484 25.3965 167.325 25.4327 167.172C27.325 159.379 25.1282 151.164 19.5891 145.357C19.4803 145.248 19.3643 145.132 19.1396 144.893C18.7553 144.501 18.5595 144.306 18.4 144.139C9.86665 135.069 9.86665 120.931 18.4 111.861C18.5595 111.694 18.7553 111.499 19.1396 111.107C19.3643 110.868 19.4803 110.752 19.5891 110.643C25.1282 104.836 27.325 96.6215 25.4327 88.8276C25.3965 88.6753 25.353 88.5159 25.2732 88.1969C25.1355 87.6677 25.0701 87.3993 25.0121 87.1746C22.1556 75.0596 29.2245 62.8069 41.1509 59.2253C41.3757 59.1601 41.6367 59.0876 42.1659 58.9354C42.4849 58.8484 42.6444 58.8049 42.7967 58.7614C50.4891 56.5066 56.5067 50.489 58.7615 42.7966C58.805 42.6444 58.8484 42.485 58.9355 42.1659C59.0877 41.6367 59.1602 41.3756 59.2255 41.1508C62.807 29.2244 75.0597 22.1555 87.1746 25.0121C87.3994 25.0701 87.6676 25.1354 88.1969 25.2731C88.5159 25.3529 88.6754 25.3964 88.8277 25.4326C96.6215 27.3249 104.836 25.1281 110.643 19.589C110.752 19.4802 110.868 19.3643 111.107 19.1396Z" fill="#2B292D"/>
</g>
<g filter="url(#filter1_i_1_3)">
<path d="M77.8333 195.958C74.4188 195.958 71.4957 194.743 69.0641 192.311C66.6325 189.879 65.4167 186.956 65.4167 183.542V121.458C65.4167 118.044 66.6325 115.121 69.0641 112.689C71.4957 110.257 74.4188 109.042 77.8333 109.042H177.167C180.581 109.042 183.504 110.257 185.936 112.689C188.368 115.121 189.583 118.044 189.583 121.458V183.542C189.583 186.956 188.368 189.879 185.936 192.311C183.504 194.743 180.581 195.958 177.167 195.958H77.8333ZM77.8333 183.542H177.167V121.458H77.8333V183.542ZM102.667 177.333H152.333V164.917H102.667V177.333ZM84.0417 158.708H96.4583V146.292H84.0417V158.708ZM102.667 158.708H115.083V146.292H102.667V158.708ZM121.292 158.708H133.708V146.292H121.292V158.708ZM139.917 158.708H152.333V146.292H139.917V158.708ZM158.542 158.708H170.958V146.292H158.542V158.708ZM84.0417 140.083H96.4583V127.667H84.0417V140.083ZM102.667 140.083H115.083V127.667H102.667V140.083ZM121.292 140.083H133.708V127.667H121.292V140.083ZM139.917 140.083H152.333V127.667H139.917V140.083ZM158.542 140.083H170.958V127.667H158.542V140.083Z" fill="#FECDB2"/>
</g>
<g filter="url(#filter2_i_1_3)">
<path d="M124.458 68.5H129.958V49.25C129.958 48.4708 129.694 47.8177 129.167 47.2906C128.64 46.7635 127.987 46.5 127.208 46.5C126.429 46.5 125.776 46.7635 125.249 47.2906C124.722 47.8177 124.458 48.4708 124.458 49.25V68.5ZM107.958 79.5H146.458V74H107.958V79.5ZM103.971 96H110.708V90.5C110.708 89.7208 110.972 89.0677 111.499 88.5406C112.026 88.0135 112.679 87.75 113.458 87.75C114.237 87.75 114.89 88.0135 115.417 88.5406C115.944 89.0677 116.208 89.7208 116.208 90.5V96H124.458V90.5C124.458 89.7208 124.722 89.0677 125.249 88.5406C125.776 88.0135 126.429 87.75 127.208 87.75C127.987 87.75 128.64 88.0135 129.167 88.5406C129.694 89.0677 129.958 89.7208 129.958 90.5V96H138.208V90.5C138.208 89.7208 138.472 89.0677 138.999 88.5406C139.526 88.0135 140.179 87.75 140.958 87.75C141.737 87.75 142.39 88.0135 142.917 88.5406C143.444 89.0677 143.708 89.7208 143.708 90.5V96H150.446L147.696 85H106.721L103.971 96ZM150.446 101.5H103.971C102.183 101.5 100.739 100.79 99.6393 99.3688C98.5393 97.9479 98.2185 96.3667 98.6768 94.625L102.458 79.5V74C102.458 72.4875 102.997 71.1927 104.074 70.1156C105.151 69.0385 106.446 68.5 107.958 68.5H118.958V49.25C118.958 46.9583 119.76 45.0104 121.364 43.4063C122.968 41.8021 124.916 41 127.208 41C129.5 41 131.448 41.8021 133.052 43.4063C134.656 45.0104 135.458 46.9583 135.458 49.25V68.5H146.458C147.971 68.5 149.265 69.0385 150.342 70.1156C151.419 71.1927 151.958 72.4875 151.958 74V79.5L155.739 94.625C156.335 96.3667 156.072 97.9479 154.949 99.3688C153.826 100.79 152.325 101.5 150.446 101.5Z" fill="#FECDB2"/>
</g>
<defs>
<filter id="filter0_d_1_3" x="8" y="12" width="240" height="240" filterUnits="userSpaceOnUse" color-interpolation-filters="sRGB">
<feFlood flood-opacity="0" result="BackgroundImageFix"/>
<feColorMatrix in="SourceAlpha" type="matrix" values="0 0 0 0 0 0 0 0 0 0 0 0 0 0 0 0 0 0 127 0" result="hardAlpha"/>
<feOffset dy="4"/>
<feGaussianBlur stdDeviation="2"/>
<feComposite in2="hardAlpha" operator="out"/>
<feColorMatrix type="matrix" values="0 0 0 0 0 0 0 0 0 0 0 0 0 0 0 0 0 0 0.25 0"/>
<feBlend mode="normal" in2="BackgroundImageFix" result="effect1_dropShadow_1_3"/>
<feBlend mode="normal" in="SourceGraphic" in2="effect1_dropShadow_1_3" result="shape"/>
</filter>
<filter id="filter1_i_1_3" x="53" y="78" width="149" height="153" filterUnits="userSpaceOnUse" color-interpolation-filters="sRGB">
<feFlood flood-opacity="0" result="BackgroundImageFix"/>
<feBlend mode="normal" in="SourceGraphic" in2="BackgroundImageFix" result="shape"/>
<feColorMatrix in="SourceAlpha" type="matrix" values="0 0 0 0 0 0 0 0 0 0 0 0 0 0 0 0 0 0 127 0" result="hardAlpha"/>
<feOffset dy="4"/>
<feGaussianBlur stdDeviation="2"/>
<feComposite in2="hardAlpha" operator="arithmetic" k2="-1" k3="1"/>
<feColorMatrix type="matrix" values="0 0 0 0 0 0 0 0 0 0 0 0 0 0 0 0 0 0 0.25 0"/>
<feBlend mode="normal" in2="shape" result="effect1_innerShadow_1_3"/>
</filter>
<filter id="filter2_i_1_3" x="94" y="41" width="66" height="70" filterUnits="userSpaceOnUse" color-interpolation-filters="sRGB">
<feFlood flood-opacity="0" result="BackgroundImageFix"/>
<feBlend mode="normal" in="SourceGraphic" in2="BackgroundImageFix" result="shape"/>
<feColorMatrix in="SourceAlpha" type="matrix" values="0 0 0 0 0 0 0 0 0 0 0 0 0 0 0 0 0 0 127 0" result="hardAlpha"/>
<feOffset dy="4"/>
<feGaussianBlur stdDeviation="2"/>
<feComposite in2="hardAlpha" operator="arithmetic" k2="-1" k3="1"/>
<feColorMatrix type="matrix" values="0 0 0 0 0 0 0 0 0 0 0 0 0 0 0 0 0 0 0.25 0"/>
<feBlend mode="normal" in2="shape" result="effect1_innerShadow_1_3"/>
</filter>
</defs>
</svg>
